HIERARCHY
ROOT Hips
{
  OFFSET -33.9132 29.2015 117.021
  CHANNELS 6 Xposition Yposition Zposition Zrotation Xrotation Yrotation
  JOINT LeftUpLeg
  {
    OFFSET 8.64259 1.95398 -2.38835
    CHANNELS 3 Zrotation Xrotation Yrotation
    JOINT LeftLeg
    {
      OFFSET 43.7702 0 0
      CHANNELS 3 Zrotation Xrotation Yrotation
      JOINT LeftFoot
      {
        OFFSET 40.6238 0 0
        CHANNELS 3 Zrotation Xrotation Yrotation
        JOINT LeftToeBase
        {
          OFFSET 12.7242 0 0
          CHANNELS 3 Zrotation Xrotation Yrotation
          End Site
          {
            OFFSET 0 0 0
          }
        }
      }
    }
  }
  JOINT RightUpLeg
  {
    OFFSET -8.2249 1.95398 -2.59336
    CHANNELS 3 Zrotation Xrotation Yrotation
    JOINT RightLeg
    {
      OFFSET 43.5653 0 0
      CHANNELS 3 Zrotation Xrotation Yrotation
      JOINT RightFoot
      {
        OFFSET 40.6238 0 0
        CHANNELS 3 Zrotation Xrotation Yrotation
        JOINT RightToeBase
        {
          OFFSET 12.7242 0 0
          CHANNELS 3 Zrotation Xrotation Yrotation
          End Site
          {
            OFFSET 0 0 0
          }
        }
      }
    }
  }
  JOINT Spine
  {
    OFFSET 0.165834 0.87714 6.61349
    CHANNELS 3 Zrotation Xrotation Yrotation
    JOINT Spine1
    {
      OFFSET 7.38963 1.71661e-005 0
      CHANNELS 3 Zrotation Xrotation Yrotation
      JOINT Spine2
      {
        OFFSET 11.9445 1.14441e-005 0
        CHANNELS 3 Zrotation Xrotation Yrotation
        JOINT Spine3
        {
          OFFSET 14.7254 4.19617e-005 0
          CHANNELS 3 Zrotation Xrotation Yrotation
          JOINT Spine4
          {
            OFFSET 10.9679 0 0
            CHANNELS 3 Zrotation Xrotation Yrotation
            JOINT RightShoulder
            {
              OFFSET 2.46616 -1.6653 3.69651
              CHANNELS 3 Zrotation Xrotation Yrotation
              JOINT RightArm
              {
                OFFSET 13.0012 0 0
                CHANNELS 3 Zrotation Xrotation Yrotation
                JOINT RightForeArm
                {
                  OFFSET 28.7848 1.62311e-005 0
                  CHANNELS 3 Zrotation Xrotation Yrotation
                  JOINT RightHand
                  {
                    OFFSET 26.5688 1.62095e-005 0
                    CHANNELS 3 Zrotation Xrotation Yrotation
                    End Site
                    {
                      OFFSET 0 0 0
                    }
                  }
                }
              }
            }
            JOINT LeftShoulder
            {
              OFFSET 2.38034 -1.29275 -3.7523
              CHANNELS 3 Zrotation Xrotation Yrotation
              JOINT LeftArm
              {
                OFFSET 16.3182 6.07031e-005 0
                CHANNELS 3 Zrotation Xrotation Yrotation
                JOINT LeftForeArm
                {
                  OFFSET 27.0901 0 0
                  CHANNELS 3 Zrotation Xrotation Yrotation
                  JOINT LeftHand
                  {
                    OFFSET 24.5451 1.51738e-005 0
                    CHANNELS 3 Zrotation Xrotation Yrotation
                    End Site
                    {
                      OFFSET 0 0 0
                    }
                  }
                }
              }
            }
            JOINT Neck
            {
              OFFSET 5.0226 -0.0266342 0
              CHANNELS 3 Zrotation Xrotation Yrotation
              JOINT Head
              {
                OFFSET 6.69364 2.86102e-005 0
                CHANNELS 3 Zrotation Xrotation Yrotation
                End Site
                {
                  OFFSET 0 0 0
                }
              }
            }
          }
        }
      }
    }
  }
}
MOTION
Frames:	7
Frame Time:	0.0416667
-304.386 87.8241 300.823 93.3968 27.296 84.9031 -167.477 40.9351 88.8222 -62.431 0.248227 -2.21781 81.3765 13.015 3.5933 23.5343 -1.40053 -2.15221 172.097 -14.3916 82.2998 -36.9427 -27.8627 -8.11383 70.1383 -10.2167 -4.67292 46.4106 -8.40496 9.80333 3.98744 8.00306 -89.946 10.9123 7.96383 -0.643784 -0.734492 7.92777 -0.995905 -23.4608 7.78679 1.79451 -3.44815 7.78681 1.79452 96.7303 -12.6647 -97.5089 30.3283 0.805155 33.7153 -34.1146 6.07102 -103.227 -56.1276 12.879 -29.3506 -87.167 -42.7638 81.6687 -12.087 36.7411 42.7997 66.8996 36.301 -69.5961 77.651 -20.1134 -20.7928 21.9703 -7.29558 1.64029 -17.1737 -7.53795 -0.52979 
-294.595 88.7896 291.424 87.9981 43.3757 89.5245 -177.741 44.7687 87.281 -38.5191 11.1433 -0.938621 70.0041 7.79692 3.09016 26.0671 -0.566985 -1.54381 175.574 -15.6917 91.4836 -36.006 -20.1326 -5.54502 58.8986 1.76065 -3.56428 26.3587 -2.16103 12.82 2.75333 7.65932 -89.4275 11.5539 5.74527 0.54877 -0.104242 5.7638 0.294508 -22.7302 5.31403 2.25495 -2.71752 5.31403 2.25495 95.5909 -10.4112 -101.634 28.1966 5.09242 38.4566 -35.4123 9.51862 -107.937 -56.7149 13.7121 -30.569 -85.048 -28.2072 82.4957 -22.7423 32.8744 44.6962 58.8989 30.0433 -63.2777 73.4868 -18.7227 -21.4406 19.8449 -11.6392 -6.64857 -14.5593 -9.23398 0.0097838 
-284.393 89.5298 281.037 89.1501 42.7319 89.1485 -175.853 38.1509 87.314 -26.7547 11.5956 -2.59359 71.5082 8.43516 0.543621 21.7731 -5.88386 5.09164 176.615 -16.9251 92.1521 -43.518 -19.5478 -5.94928 61.8629 -1.0217 -2.99878 17.9593 1.1501 11.0931 2.85215 7.41259 -89.5268 12.061 5.89426 0.304104 0.403558 5.90192 0.0434593 -22.2298 5.52952 2.06693 -2.21716 5.52952 2.06693 95.7037 -11.0669 -101.026 30.6025 -4.83668 42.3289 -36.2747 11.2306 -109.82 -56.0479 14.8676 -33.0574 -85.8044 -32.8475 81.9815 -23.3944 31.5864 47.1038 59.073 27.8215 -63.7993 79.1496 -18.6235 -18.9711 15.5804 -10.6793 -5.37852 -13.3923 -8.84082 -0.885464 
-275.368 89.3224 271.298 92.6862 42.8714 88.986 -174.465 35.0173 89.3726 -32.7619 9.85862 -3.00005 60.8129 0.192497 1.21036 23.571 -2.38579 -0.0231829 174.184 -12.1704 91.2812 -57.8948 -9.32045 -2.91201 65.0781 -3.66614 -1.35465 21.8454 -0.507251 11.9114 2.34214 7.40789 -89.9321 12.076 4.68818 -0.380865 0.413364 4.66688 -0.587294 -22.1877 4.58547 1.0488 -2.17505 4.58546 1.04879 94.6574 -15.2617 -102.112 36.8179 -14.8205 42.0682 -38.6558 6.7165 -103.945 -52.4874 13.2174 -31.9389 -86.1284 -40.1467 82.8971 -21.1307 25.5229 38.4173 66.202 35.5111 -68.9853 78.0302 -13.7323 -13.0431 14.2472 -8.45957 -4.44537 -14.4248 -7.1185 0.185875 
-266.89 88.5716 262.346 95.6316 42.5801 84.9459 -170.831 31.8505 86.6773 -47.208 12.0687 -4.07389 71.5683 8.20756 4.49631 13.0453 -9.5081 3.038 171.352 0.50211 89.1745 -76.9209 -3.04746 -2.69612 69.1481 -7.45811 -4.13421 13.6207 4.75167 6.01248 1.50484 7.58808 -89.7058 11.6978 3.13119 0.258362 0.0306716 3.13952 0.120163 -22.5314 2.90866 1.18825 -2.51872 2.90865 1.18824 94.5377 -20.2412 -100.518 46.595 -16.0372 38.0915 -46.9811 -4.17896 -88.4616 -45.4708 9.82505 -28.6825 -87.1947 -47.1499 82.4415 -16.5147 15.7125 24.55 73.1368 45.311 -75.2348 79.2488 -9.20508 -6.85333 14.4621 -5.44875 -6.10999 -13.9153 -3.87021 1.78256 
-258.969 87.43 254.258 97.8266 37.8748 77.4625 -167.195 21.9831 82.228 -51.636 7.20829 -6.0255 79.253 14.353 5.03817 23.0234 -2.57863 -0.0891611 176.258 17.1797 85.102 -90.8923 -0.236189 -4.98873 72.4534 -10.3092 -5.28379 17.6736 2.26705 8.20521 0.972353 7.87748 -88.8351 11.0875 2.47572 2.07409 -0.58258 2.56462 1.96309 -23.1151 1.73817 2.72204 -3.10246 1.7382 2.72204 93.1954 -25.2729 -101.842 50.7553 -4.00086 30.9915 -53.4753 -28.0598 -70.2767 -42.3205 7.63687 -25.0259 -88.479 -50.871 81.1684 -11.7678 9.37148 6.3563 80.4207 50.8073 -81.6447 92.2146 -5.49522 -0.589683 15.4769 -2.2443 -8.20743 -14.8184 -0.126891 1.87726 
-251.148 86.0998 246.688 97.7849 35.9158 78.2994 -167 14.3714 83.8759 -54.535 2.28874 -5.36358 92.5571 21.6382 -1.17789 23.6187 -5.93422 7.19032 -178.869 33.0791 88.9562 -92.8975 0.746744 -4.90285 73.5355 -11.454 -7.47086 20.755 -0.793321 14.1041 0.323858 7.79905 -88.9636 11.2704 1.12707 1.94833 -0.401857 1.21171 1.89686 -22.9237 0.489683 2.19684 -2.91107 0.489682 2.19684 93.8159 -23.9787 -100.91 48.4552 4.62377 33.2264 -63.014 -45.2404 -69.8827 -36.854 4.97622 -20.3718 -88.9412 -51.7102 80.6449 -5.26028 6.56664 -11.9014 101.708 52.6962 -98.4279 89.9228 -8.4734 -3.50405 14.545 2.28518 -4.69881 -14.9074 3.53634 -0.425856 
